<?xml version="1.0" encoding="UTF-8" standalone="no"?>
<!-- Generator: Adobe Illustrator 23.0.1, SVG Export Plug-In . SVG Version: 6.00 Build 0)  -->

<svg
   version="1.1"
   id="Layer_1"
   x="0px"
   y="0px"
   viewBox="0 0 2500 465"
   xml:space="preserve"
   sodipodi:docname="dstv-logo.svg"
   inkscape:export-filename="dstv-logo.svg"
   inkscape:export-xdpi="96"
   inkscape:export-ydpi="96"
   inkscape:version="1.3 (0e150ed6c4, 2023-07-21)"
   width="2500"
   height="465"
   xmlns:inkscape="http://www.inkscape.org/namespaces/inkscape"
   xmlns:sodipodi="http://sodipodi.sourceforge.net/DTD/sodipodi-0.dtd"
   xmlns="http://www.w3.org/2000/svg"
   xmlns:svg="http://www.w3.org/2000/svg"><defs
   id="defs1" /><sodipodi:namedview
   id="namedview1"
   pagecolor="#ffffff"
   bordercolor="#000000"
   borderopacity="0.25"
   inkscape:showpageshadow="2"
   inkscape:pageopacity="0.0"
   inkscape:pagecheckerboard="0"
   inkscape:deskcolor="#d1d1d1"
   inkscape:zoom="0.476"
   inkscape:cx="817.22689"
   inkscape:cy="498.94958"
   inkscape:window-width="1920"
   inkscape:window-height="1009"
   inkscape:window-x="-8"
   inkscape:window-y="-8"
   inkscape:window-maximized="1"
   inkscape:current-layer="Layer_1" />&#10;<style
   type="text/css"
   id="style1">&#10;	.st0{fill:#0095DA;}&#10;</style>&#10;<g
   id="g825"
   transform="matrix(2.501894,0,0,2.501894,0.31273675,-1018.6932)"
   inkscape:export-filename=".\g825.svg"
   inkscape:export-xdpi="96"
   inkscape:export-ydpi="96">&#10;	<g
   id="g1">&#10;		<g
   id="g827">&#10;			<g
   id="g833"
   transform="translate(496.875,438.4688)">&#10;				<path
   id="path835"
   class="st0"
   d="m 500.3,18.6 h -21.9 c -3.9,0 -7.4,3.6 -7.5,3.7 L 388,131.1 c -1.6,2 -4,2 -5.5,-0.1 L 305.8,22.3 c 0,-0.1 -2.9,-3.8 -8.3,-3.8 H 150.2 c -2.6,0 -4.7,-2.1 -4.6,-4.6 l 0.1,-35.9 c 0,-5.2 -4.2,-9.3 -9.3,-9.3 H -89.3 c -34.9,1.2 -49.9,4.7 -65.9,14 -14.7,8.6 -22.1,19.6 -22.1,32.8 0,14 11.4,27.7 34.2,41.3 5.9,3.5 27,13.7 63.3,30.5 22.8,10.5 35.1,19.2 34.2,27.8 -1.4,13.8 -13.9,18.5 -43.8,18.5 h -136.4 c -3.3,0 -6,-0.6 -6,-3.2 0,-1.3 0.8,-2.4 2.2,-3.3 v 0 c 30.5,-18.4 40.6,-43.2 40.6,-65.6 0,-42.1 -35.4,-92.8 -176.2,-92.8 h -122.5 c -5.1,0 -9.3,4.2 -9.3,9.3 v 167.1 c 0,5.1 4.1,9.3 9.3,9.3 h 122.5 c 4.7,0 9.2,-0.1 13.6,-0.2 h 306.3 c 28,0 49.8,-4.6 65.6,-13.8 C 34.9,131.8 42.2,121 42.2,107.7 42.2,93.8 30.8,80 8,66.5 2.2,63 -18.9,52.7 -55.3,35.9 -78.1,25.4 -89.5,16.8 -89.5,10.3 c 0,-14 14.8,-20.7 44.3,-20.7 H 58.3 c 2.6,0 4.6,2.1 4.7,4.6 l -0.1,121.3 c 0,17.8 11.8,38.8 47.4,38.8 h 284.6 c 6.7,0 10.2,-4.4 10.2,-4.4 L 502.6,21.8 c 0,-0.1 2.2,-3.2 -2.3,-3.2 m -883.8,115.7 h -30.1 c -2.6,0 -4.7,-2.1 -4.7,-4.6 V -6.6 c 0,-2.6 2.1,-4.6 4.6,-4.6 h 30.2 c 74.6,0 114.2,30.7 114.2,72.7 -0.1,42.2 -40,72.8 -114.2,72.8 m 683.2,0.5 H 168.2 c -18.3,0 -22.7,-5.2 -22.7,-19.3 v -73 c 0,-2.4 1.9,-4.4 4.3,-4.6 h 76.3 c 2.4,0.2 5.3,1.6 6.8,3.5 l 68.5,89.9 c 1.5,1.9 0.7,3.5 -1.7,3.5" />&#10;			</g>&#10;		</g>&#10;	</g>&#10;</g>&#10;</svg>
