<?xml version="1.0" encoding="UTF-8" standalone="no"?>
<!-- Generator: Adobe Illustrator 19.0.0, SVG Export Plug-In . SVG Version: 6.00 Build 0)  -->

<svg
   version="1.1"
   id="layer"
   x="0px"
   y="0px"
   viewBox="-153 -46 599 107"
   xml:space="preserve"
   sodipodi:docname="showmax-logo-vector.svg"
   width="599"
   height="107"
   inkscape:version="1.3 (0e150ed6c4, 2023-07-21)"
   xmlns:inkscape="http://www.inkscape.org/namespaces/inkscape"
   xmlns:sodipodi="http://sodipodi.sourceforge.net/DTD/sodipodi-0.dtd"
   xmlns="http://www.w3.org/2000/svg"
   xmlns:svg="http://www.w3.org/2000/svg"><defs
   id="defs1" /><sodipodi:namedview
   id="namedview1"
   pagecolor="#ffffff"
   bordercolor="#000000"
   borderopacity="0.25"
   inkscape:showpageshadow="2"
   inkscape:pageopacity="0.0"
   inkscape:pagecheckerboard="0"
   inkscape:deskcolor="#d1d1d1"
   inkscape:zoom="0.73006135"
   inkscape:cx="326"
   inkscape:cy="325.31513"
   inkscape:window-width="1080"
   inkscape:window-height="1849"
   inkscape:window-x="1912"
   inkscape:window-y="-8"
   inkscape:window-maximized="1"
   inkscape:current-layer="layer" />&#10;<style
   type="text/css"
   id="style1">&#10;	.st0{fill:#C34986;}&#10;	.st1{fill:#648D9D;}&#10;</style>&#10;<path
   id="XMLID_1_"
   d="m 148.14387,20.725676 c -0.2,-0.5 -0.4,-1 -0.6,-1.5 -3.9,-11.9999999 -7.8,-23.9999999 -11.7,-36 -0.5,-1.4 -1,-1.9 -2.6,-1.9 -6.2,0.1 -12.5,0.1 -18.7,0 -1.4,0 -2,0.4 -2.4,1.8 -2.2,7.3000001 -4.5,14.6000001 -6.8,21.9000001 -1.5,4.7 -2.9,9.3999999 -4.4,14.0999999 -0.7,-0.3 -0.6,-0.8 -0.7,-1.1 -3.100003,-11.5999999 -6.200003,-23.1999999 -9.200003,-34.8 -0.4,-1.5 -1,-1.8 -2.4,-1.8 -7.4,0.1 -14.8,0.1 -22.3,0 -2,0 -2.6,0.2 -1.8,2.4 1.4,4.1 2.6,8.4000001 3.9,12.5000001 -20.1,-26.6000001 -66.1999996,-21.3000001 -76.8999996,10.9 -0.7,-11.6 -4.0000004,-21.6000001 -15.8000004,-25.9000001 -13.4,-4.9 -24.7,-1.2 -34.1,10.2000001 v -2.8000001 c 0,-10.9 0,-21.9 0,-32.8 0,-1.1 0.2,-2.1 -1.6,-1.9 -7.8,0.9 -15.7,1.7 -23.5,2.4 -1.8,0.2 -2.4,0.8 -2.4,2.7 0.1,21.4 0.1,42.8000001 0.1,64.2 0,0.4 0,0.8 0,1.2 0,0.4 0.1,0.9 -0.4,1.2 -1.8,-6.3 -6.3,-10.2 -11.7,-13 -4.499997,-2.3 -9.299997,-3.8999999 -14.199997,-5.2999999 -3.7,-1.1 -7.4,-2 -10.8,-3.8 -1.6,-0.8 -3,-1.9 -2.7,-3.89999999 0.3,-2.10000001 1.9,-2.90000001 3.8,-3.30000001 2,-0.4 4,-0.3 6.1,0 6.2,0.9 12.1,3.10000001 17.599997,6.1 1.7,0.9 2.3,0.6 3.1,-1 2.3,-4.5 4.7,-9 7.3,-13.3000001 1,-1.7 0.5,-2.3 -0.9,-3.2 -9.8,-5.5 -20.399997,-8 -31.599997,-7.8 -5.9,0.1 -11.6,1.2 -16.9,4.1 -9,4.9 -13,12.5000001 -12.8,22.7000001 0.2,9.5999999 5.5,15.4999999 13.8,19.3999999 4,1.9 8.3,3.1 12.6,4.3 3.9,1.1 7.9,2 11.5,3.8 1.6,0.8 2.6,2 2.4,3.9 -0.2,2 -1.7,3 -3.4,3.4 -1.8,0.4 -3.7,0.5 -5.6,0.3 -8.4,-0.6 -15.9,-3.5 -23,-7.9 -1.3,-0.8 -1.8,-0.8 -2.6,0.6 -2.7,4.5 -5.5,9 -8.4,13.5 -0.7,1.1 -0.6,1.6 0.5,2.3 14.3,9.4 29.9,12.8 46.6,9.4 8.199997,-1.6 14.899997,-5.9 18.499997,-14 0.6,-1.2 0.9,-2.6 1.4,-3.8 0.3,5.7 0.4,11.5 0.3,17.1 -0.1,2.2 0.6,2.6 2.6,2.5 7.5,-0.1 15,-0.1 22.5,0 2,0 2.4,-0.5 2.4,-2.5 -0.1,-13.1 0,-26.2 0,-39.4 0,-2.7 0.3,-5.3 1.6,-7.6999999 2.1,-4 6.2,-6.1 11.2,-5.6 4.5,0.5 7.4,3 8.8,7.1999999 0.7,2.1 0.9,4.3 0.9,6.5 0,13.1 0,26.2 0,39.4 0,1.6 0.3,2.1 2,2.1 7.7,-0.1 15.5,-0.1 23.2,0 1.7000004,0 2.1000004,-0.5 2.0000004,-2.1 -0.1,-5.2 0,-10.5 0,-15.7 v -7.8 c 7.59999998,19.6 25.8999996,28.7 44.3999996,27.4 10.6,-0.7 20,-4.6 27.7,-12.1 7.7,-7.5 11.7,-16.8 12.2,-27.6 0.3,0.4 0.5,0.7 0.6,1.1 3.6,11.6 7.2,23.2 10.7,34.8 0.5,1.5 1.1,1.9 2.6,1.9 6.4,-0.1 12.800003,-0.1 19.200003,0 1.6,0 2.3,-0.4 2.7,-2 2.1,-6.8 4.3,-13.5 6.5,-20.2 1.9,-5.8 3.8,-11.7 5.8,-17.9 0.4,1.1 0.6,1.8 0.8,2.4 3.9,12.3 7.8,24.6 11.7,36.9 1.2,-0.3 1.3,-1.3 1.5,-2.2 3.4,-10.9 6.8,-21.7 10.1,-32.6 -0.2,-0.7 0.3,-1.5 -0.3,-2.4 m -99.500003,3.7 c -1.4,6.3 -5.2,10.7 -11.6,12.5 -10.8,2.9 -20.7,-5.3 -20.7,-18.8 0.2,-5.3 2.6,-11.0999999 9.2,-14.2999999 6,-2.8 12,-2.2 17.1,2 5.8,4.8999999 7.6,11.3999999 6,18.5999999 m 367.900003,-2.6 c -1.1,-1.3 -1.1,-2.1 0,-3.4 9.7,-11.6999999 19.3,-23.3999999 28.8,-35.1 0.5,-0.5 1.2,-1 1.1,-2 h -2.3 c -9.8,0 -19.5,0.1 -29.3,0 -2.1,0 -3.4,0.6 -4.7,2.2 -4.1,5.2 -8.3,10.3000001 -12.6,15.60000011 -4.5,-5.60000001 -8.9,-10.90000011 -13.3,-16.40000011 -0.6,-0.8 -1.2,-1.4 -2.4,-1.4 -14.2,0 -28.4,0.1 -42.6,0 -1.4,0 -1.6,0.6 -1.6,1.8 0.1,2.3 0,4.6 0,6.8 -0.2,0.1000001 -0.5,0.2000001 -0.7,0.4000001 -0.5,-0.6000001 -0.8,-1.3000001 -1.4,-1.9000001 -10.9,-11.5 -27.2,-11.2 -38,-4.5 -10.9,6.7000001 -15.8,17.00000011 -17.5,29.3 -0.5,3.5 -0.4,7 -0.6,10.5 -0.2,-0.2 -0.3,-0.4 -0.4,-0.6 -4.1,-13.1999999 -8.2,-26.4999999 -12.2,-39.7 -0.4,-1.4 -0.9,-2 -2.5,-2 -6.6,0.1 -13.1,0.1 -19.7,0 -1.5,0 -2,0.5 -2.4,1.8 -1.4,4.7 -2.9,9.4000001 -4.5,14.0000001 -2.6,7.9 -5.1,15.7999999 -7.9,24.3999999 -4.3,-13.5999999 -8.3,-26.5999999 -12.4,-39.6 -1.3,0.2 -1.4,1.4 -1.7,2.2 -3.3,10.6000001 -6.7,21.2000001 -9.9,31.8 -0.2,0.8 -0.7,1.6 -0.1,2.5 0.2,0.4 0.4,0.9 0.5,1.3 3.9,12.3 7.8,24.6 11.6,37 0.4,1.3 0.8,1.9 2.3,1.9 6.3,-0.1 12.7,-0.1 19,0 1.4,0 1.9,-0.5 2.3,-1.7 1.8,-6 3.7,-12 5.6,-18.1 1.9,-6.1 3.8,-12.2 5.9,-18.8 0.8,3 1.4,5.4 2.1,7.8 2.5,9.6 5.1,19.3 7.6,28.9 0.2,0.8 0.1,1.9 1.6,1.9 8.4,-0.1 16.8,0 25.5,0 -1.4,-4.5 -2.7,-8.9 -4,-13.2 6.3,8.5 14.4,13.9 25,15 10.9,1.1 19.5,-3.2 26.6,-12 0,3.2 0.1,5.6 0,8 -0.1,1.8 0.4,2.2 2.2,2.2 13.9,-0.1 27.8,-0.1 41.7,0 1.5,0 2.4,-0.5 3.3,-1.6 4.2,-5.3 8.4,-10.4 12.8,-15.8 4.4,5.4 8.6,10.6 12.9,15.9 0.9,1.1 1.8,1.5 3.2,1.5 10.3,-0.1 20.6,0 30.9,-0.1 0.6,0 1.2,0.3 1.7,-0.4 -0.4,-0.5 -0.8,-1.1 -1.3,-1.6 -9.1,-11.6 -18.6,-23.2 -28.2,-34.8 m -77.4,-0.3 c -1,9.3 -7.4,15.9 -15.8,16.2 -9.6,0.3 -17.3,-7.6 -17.2,-17.9 0,-9.6 7.1,-17.3999999 15.8,-17.6999999 10.3,-0.4 18.3,8.6999999 17.2,19.3999999 m 41.5,0 c -6.3,6.7 -12.6,13.4 -19.1,20.4 V -1.1743239 c 6.5,7 12.8,13.6999999 19.1,20.3999999 0.9,0.8 0.9,1.3 0,2.3" />&#10;<polygon
   id="XMLID_6_"
   class="st0"
   points="189.8,331.6 213.8,253.7 187.1,253.7 163.2,331.5 "
   transform="translate(-26.856133,-272.67432)" />&#10;<polygon
   id="XMLID_5_"
   class="st1"
   points="220.6,331.6 244.6,253.7 217.9,253.7 194,331.5 "
   transform="translate(-26.856133,-272.67432)" />&#10;</svg>
